<svg width="127" height="18" viewBox="0 0 127 18" fill="none" xmlns="http://www.w3.org/2000/svg">
<path d="M10.5996 1.96973C10.5996 2.30371 10.5088 2.61719 10.3271 2.91016C10.1514 3.20312 9.92871 3.47266 9.65918 3.71875C9.39551 3.95898 9.10547 4.17285 8.78906 4.36035C8.47852 4.54199 8.18848 4.68555 7.91895 4.79102C7.63184 4.90234 7.33887 4.99316 7.04004 5.06348C6.74707 5.12793 6.45117 5.16895 6.15234 5.18652L5.97656 4.87891C6.22852 4.81445 6.48633 4.71191 6.75 4.57129C7.01367 4.43066 7.25391 4.26074 7.4707 4.06152C7.6875 3.85645 7.86328 3.62793 7.99805 3.37598C8.13867 3.12402 8.20898 2.85156 8.20898 2.55859C8.20898 2.35352 8.1709 2.17188 8.09473 2.01367C8.02441 1.85547 7.9248 1.72363 7.7959 1.61816C7.67285 1.50684 7.52637 1.4248 7.35645 1.37207C7.18652 1.31348 7.00195 1.28418 6.80273 1.28418C6.31641 1.28418 5.88281 1.375 5.50195 1.55664C5.12695 1.73828 4.7959 1.98438 4.50879 2.29492C4.22168 2.59961 3.97852 2.95117 3.7793 3.34961C3.58008 3.74805 3.41602 4.16699 3.28711 4.60645C3.16406 5.04004 3.07324 5.47949 3.01465 5.9248C2.96191 6.37012 2.93555 6.78906 2.93555 7.18164C2.93555 7.47461 2.9502 7.78516 2.97949 8.11328C3.01465 8.43555 3.07324 8.75781 3.15527 9.08008C3.2373 9.40234 3.3457 9.70996 3.48047 10.0029C3.61523 10.2959 3.78516 10.5537 3.99023 10.7764C4.19531 10.999 4.43555 11.1777 4.71094 11.3125C4.99219 11.4414 5.31738 11.5059 5.68652 11.5059C6.00293 11.5059 6.29883 11.4473 6.57422 11.3301C6.84961 11.2129 7.10156 11.0576 7.33008 10.8643C7.55859 10.6709 7.76074 10.4453 7.93652 10.1875C8.11816 9.92969 8.27051 9.66016 8.39355 9.37891C8.52246 9.09766 8.61914 8.81348 8.68359 8.52637C8.74805 8.23926 8.78027 7.9668 8.78027 7.70898L10.5996 7.05859V14.2568L8.78027 14.9072V9.43164C8.66895 9.91211 8.48145 10.375 8.21777 10.8203C7.95996 11.2656 7.65527 11.6611 7.30371 12.0068C6.95215 12.3467 6.56836 12.6221 6.15234 12.833C5.74219 13.0381 5.3291 13.1406 4.91309 13.1406C4.28027 13.1406 3.70605 13.0117 3.19043 12.7539C2.6748 12.4902 2.23535 12.1416 1.87207 11.708C1.50879 11.2744 1.22754 10.7764 1.02832 10.2139C0.834961 9.65137 0.738281 9.06836 0.738281 8.46484C0.738281 7.81445 0.826172 7.16113 1.00195 6.50488C1.17773 5.84277 1.42676 5.20996 1.74902 4.60645C2.07129 4.00293 2.45801 3.4375 2.90918 2.91016C3.36035 2.38281 3.8584 1.92578 4.40332 1.53906C4.9541 1.15234 5.54297 0.847656 6.16992 0.625C6.80273 0.402344 7.45898 0.291016 8.13867 0.291016C8.39062 0.291016 8.66016 0.320312 8.94727 0.378906C9.24023 0.431641 9.50684 0.522461 9.74707 0.651367C9.99316 0.780273 10.1953 0.953125 10.3535 1.16992C10.5176 1.38086 10.5996 1.64746 10.5996 1.96973ZM17.2881 12.042C17.1826 12.2061 17.0537 12.3555 16.9014 12.4902C16.749 12.6191 16.582 12.7305 16.4004 12.8242C16.2188 12.918 16.0283 12.9912 15.8291 13.0439C15.6299 13.0967 15.4336 13.123 15.2402 13.123C14.9824 13.123 14.7598 13.0762 14.5723 12.9824C14.3906 12.8828 14.2412 12.7539 14.124 12.5957C14.0068 12.4375 13.9189 12.2529 13.8604 12.042C13.8076 11.8311 13.7812 11.6113 13.7812 11.3828C13.7812 11.084 13.8252 10.7646 13.9131 10.4248C14.0068 10.0791 14.1299 9.73926 14.2822 9.40527C14.4404 9.07129 14.6191 8.76074 14.8184 8.47363C15.0176 8.18652 15.2285 7.94922 15.4512 7.76172C15.2461 7.89648 15.0205 8.00195 14.7744 8.07812C14.5342 8.1543 14.2881 8.19238 14.0361 8.19238C13.8545 8.19238 13.6963 8.17773 13.5615 8.14844C13.4268 8.11914 13.2773 8.06348 13.1133 7.98145L12.1992 9.88867L11.8213 9.73926L12.7705 7.79688C12.6709 7.72656 12.5625 7.63867 12.4453 7.5332C12.334 7.42188 12.252 7.31348 12.1992 7.20801L13.4209 5.83691C13.4736 5.99512 13.5469 6.15625 13.6406 6.32031C13.7344 6.47852 13.8428 6.62207 13.9658 6.75098C14.0947 6.87402 14.2354 6.97656 14.3877 7.05859C14.5459 7.14062 14.7158 7.18164 14.8975 7.18164C15.208 7.18164 15.5098 7.12598 15.8027 7.01465C16.0957 6.89746 16.3682 6.75684 16.6201 6.59277L16.8574 6.83008C16.6348 7.03516 16.4092 7.26367 16.1807 7.51562C15.958 7.76172 15.7559 8.02539 15.5742 8.30664C15.3926 8.58789 15.2461 8.88379 15.1348 9.19434C15.0234 9.50488 14.9678 9.81836 14.9678 10.1348C14.9678 10.3164 14.9912 10.5215 15.0381 10.75C15.0908 10.9727 15.1699 11.1865 15.2754 11.3916C15.3809 11.5908 15.5127 11.7607 15.6709 11.9014C15.8291 12.0361 16.0195 12.1035 16.2422 12.1035C16.3945 12.1035 16.541 12.0771 16.6816 12.0244C16.8281 11.9658 16.96 11.8955 17.0771 11.8135L17.2881 12.042ZM21.2168 13.2021C20.7832 13.2021 20.376 13.126 19.9951 12.9736C19.6201 12.8154 19.292 12.5986 19.0107 12.3232C18.7354 12.0479 18.5156 11.7256 18.3516 11.3564C18.1934 10.9814 18.1143 10.5742 18.1143 10.1348C18.1143 9.63672 18.1963 9.1709 18.3604 8.7373C18.5244 8.29785 18.75 7.90234 19.0371 7.55078C19.3301 7.19922 19.6729 6.89453 20.0654 6.63672C20.4639 6.37891 20.8945 6.17676 21.3574 6.03027L21.6123 6.33789C21.3486 6.53125 21.1025 6.75391 20.874 7.00586C20.6455 7.25195 20.4463 7.52148 20.2764 7.81445C20.1064 8.10156 19.9717 8.40625 19.8721 8.72852C19.7725 9.04492 19.7227 9.37012 19.7227 9.7041C19.7227 9.98535 19.7637 10.2812 19.8457 10.5918C19.9277 10.9023 20.0508 11.1865 20.2148 11.4443C20.3789 11.7021 20.584 11.916 20.8301 12.0859C21.082 12.25 21.3721 12.332 21.7002 12.332C21.9932 12.332 22.2451 12.2793 22.4561 12.1738C22.6729 12.0684 22.8516 11.9248 22.9922 11.7432C23.1328 11.5615 23.2383 11.3506 23.3086 11.1104C23.3789 10.8643 23.4141 10.6064 23.4141 10.3369C23.4141 10.0205 23.3525 9.69824 23.2295 9.37012C23.1064 9.03613 22.9365 8.72852 22.7197 8.44727C22.5088 8.16602 22.2598 7.93164 21.9727 7.74414C21.6855 7.55664 21.3779 7.44824 21.0498 7.41895C21.2549 7.18457 21.4805 6.96777 21.7266 6.76855C21.9727 6.56934 22.2217 6.37891 22.4736 6.19727C22.8135 6.30859 23.1123 6.47266 23.3701 6.68945C23.6338 6.90625 23.8535 7.15527 24.0293 7.43652C24.2109 7.71777 24.3486 8.02539 24.4424 8.35938C24.5361 8.6875 24.583 9.02148 24.583 9.36133C24.583 9.82422 24.501 10.2842 24.3369 10.7412C24.1787 11.1982 23.9502 11.6113 23.6514 11.9805C23.3584 12.3438 23.0039 12.6396 22.5879 12.8682C22.1777 13.0908 21.7207 13.2021 21.2168 13.2021ZM33.1084 11.9717C32.9736 12.2588 32.8154 12.4785 32.6338 12.6309C32.4521 12.7832 32.2793 12.8945 32.1152 12.9648C31.9219 13.0469 31.7256 13.0938 31.5264 13.1055C31.2627 13.1055 31.0459 13.0645 30.876 12.9824C30.7119 12.9004 30.5801 12.792 30.4805 12.6572C30.3809 12.5225 30.3105 12.3701 30.2695 12.2002C30.2344 12.0303 30.2168 11.8574 30.2168 11.6816V8.87793C30.1699 9.08887 30.1084 9.34082 30.0322 9.63379C29.9619 9.92676 29.874 10.2344 29.7686 10.5566C29.6631 10.873 29.54 11.1895 29.3994 11.5059C29.2588 11.8164 29.0947 12.0947 28.9072 12.3408C28.7256 12.5869 28.5176 12.7891 28.2832 12.9473C28.0547 13.0996 27.7969 13.1758 27.5098 13.1758C27.2695 13.1758 27.0791 13.1289 26.9385 13.0352C26.8037 12.9473 26.7012 12.8213 26.6309 12.6572C26.5664 12.4873 26.5254 12.2881 26.5078 12.0596C26.4961 11.8252 26.4902 11.5674 26.4902 11.2861V7.47168C26.4902 7.33105 26.458 7.21973 26.3936 7.1377C26.3291 7.05566 26.2441 7.01465 26.1387 7.01465C26.0391 7.00879 25.9277 7.04395 25.8047 7.12012C25.6816 7.19629 25.5615 7.31934 25.4443 7.48926L25.207 7.22559C25.3418 6.94434 25.4971 6.72754 25.6729 6.5752C25.8486 6.41699 26.0215 6.30273 26.1914 6.23242C26.3848 6.15039 26.584 6.10352 26.7891 6.0918C27.0527 6.0918 27.2666 6.13281 27.4307 6.21484C27.6006 6.29688 27.7324 6.40527 27.8262 6.54004C27.9258 6.66895 27.9932 6.81836 28.0283 6.98828C28.0693 7.1582 28.0898 7.33105 28.0898 7.50684V11.1455C28.0898 11.374 28.1309 11.5234 28.2129 11.5938C28.2949 11.6641 28.4004 11.6553 28.5293 11.5674C28.6641 11.4736 28.8105 11.3066 28.9688 11.0664C29.1328 10.8203 29.2969 10.498 29.4609 10.0996C29.5664 9.71875 29.6689 9.32617 29.7686 8.92188C29.8506 8.57617 29.9326 8.19531 30.0146 7.7793C30.1025 7.36328 30.1699 6.96191 30.2168 6.5752L31.834 6.0127V11.7256C31.834 11.8662 31.8662 11.9775 31.9307 12.0596C31.9951 12.1416 32.0771 12.1855 32.1768 12.1914C32.2764 12.1914 32.3848 12.1533 32.502 12.0771C32.625 12.001 32.7451 11.8779 32.8623 11.708L33.1084 11.9717ZM37.5381 13.1582C37.333 13.1582 37.1367 13.1289 36.9492 13.0703C36.7617 13.0176 36.5859 12.9268 36.4219 12.7979L37.1074 11.8135C37.2188 11.9658 37.3477 12.0859 37.4941 12.1738C37.6465 12.2559 37.8135 12.2969 37.9951 12.2969C38.1826 12.2969 38.3438 12.25 38.4785 12.1562C38.6133 12.0566 38.7246 11.9277 38.8125 11.7695C38.9062 11.6113 38.9824 11.4355 39.041 11.2422C39.0996 11.043 39.1436 10.8438 39.1729 10.6445C39.2021 10.4453 39.2227 10.2549 39.2344 10.0732C39.2461 9.88574 39.252 9.72754 39.252 9.59863C39.252 9.35254 39.2168 9.08594 39.1465 8.79883C39.082 8.51172 38.9795 8.24219 38.8389 7.99023C38.7041 7.73828 38.5283 7.53027 38.3115 7.36621C38.0947 7.19629 37.8369 7.11133 37.5381 7.11133C37.333 7.11133 37.1572 7.16406 37.0107 7.26953C36.8701 7.36914 36.75 7.50391 36.6504 7.67383C36.5566 7.83789 36.4805 8.02832 36.4219 8.24512C36.3691 8.45605 36.3281 8.66992 36.2988 8.88672C36.2754 9.09766 36.2607 9.30566 36.2549 9.51074C36.249 9.70996 36.2461 9.88281 36.2461 10.0293V16.7793L34.6465 17.3418V7.47168C34.6465 7.35449 34.6172 7.24902 34.5586 7.15527C34.5 7.05566 34.4092 7.00586 34.2861 7.00586C34.1396 7.00586 34.0049 7.06152 33.8818 7.17285C33.7646 7.27832 33.6709 7.38379 33.6006 7.48926L33.3633 7.22559C33.4336 7.0791 33.5215 6.93848 33.627 6.80371C33.7383 6.66309 33.8613 6.54004 33.9961 6.43457C34.1367 6.3291 34.2861 6.24707 34.4443 6.18848C34.6084 6.12402 34.7783 6.0918 34.9541 6.0918C35.2061 6.0918 35.4141 6.12988 35.5781 6.20605C35.7422 6.27637 35.874 6.37891 35.9736 6.51367C36.0732 6.64844 36.1436 6.80957 36.1846 6.99707C36.2256 7.18457 36.2461 7.39258 36.2461 7.62109C36.3398 7.43945 36.4482 7.25781 36.5713 7.07617C36.7002 6.88867 36.8438 6.72461 37.002 6.58398C37.1602 6.4375 37.333 6.32031 37.5205 6.23242C37.7139 6.13867 37.9248 6.0918 38.1533 6.0918C38.5576 6.0918 38.915 6.18262 39.2256 6.36426C39.542 6.54004 39.8057 6.77441 40.0166 7.06738C40.2334 7.35449 40.3975 7.67969 40.5088 8.04297C40.6201 8.40625 40.6758 8.77539 40.6758 9.15039C40.6758 9.61328 40.6084 10.082 40.4736 10.5566C40.3447 11.0312 40.1484 11.4619 39.8848 11.8486C39.627 12.2354 39.3018 12.5518 38.9092 12.7979C38.5166 13.0381 38.0596 13.1582 37.5381 13.1582ZM55.6348 1.96973C55.6348 2.30371 55.5439 2.61719 55.3623 2.91016C55.1865 3.20312 54.9639 3.47266 54.6943 3.71875C54.4307 3.95898 54.1406 4.17285 53.8242 4.36035C53.5137 4.54199 53.2236 4.68555 52.9541 4.79102C52.667 4.90234 52.374 4.99316 52.0752 5.06348C51.7822 5.12793 51.4863 5.16895 51.1875 5.18652L51.0117 4.87891C51.2637 4.81445 51.5215 4.71191 51.7852 4.57129C52.0488 4.43066 52.2891 4.26074 52.5059 4.06152C52.7227 3.85645 52.8984 3.62793 53.0332 3.37598C53.1738 3.12402 53.2441 2.85156 53.2441 2.55859C53.2441 2.35352 53.2061 2.17188 53.1299 2.01367C53.0596 1.85547 52.96 1.72363 52.8311 1.61816C52.708 1.50684 52.5615 1.4248 52.3916 1.37207C52.2217 1.31348 52.0371 1.28418 51.8379 1.28418C51.3516 1.28418 50.918 1.375 50.5371 1.55664C50.1621 1.73828 49.8311 1.98438 49.5439 2.29492C49.2568 2.59961 49.0137 2.95117 48.8145 3.34961C48.6152 3.74805 48.4512 4.16699 48.3223 4.60645C48.1992 5.04004 48.1084 5.47949 48.0498 5.9248C47.9971 6.37012 47.9707 6.78906 47.9707 7.18164C47.9707 7.47461 47.9854 7.78516 48.0146 8.11328C48.0498 8.43555 48.1084 8.75781 48.1904 9.08008C48.2725 9.40234 48.3809 9.70996 48.5156 10.0029C48.6504 10.2959 48.8203 10.5537 49.0254 10.7764C49.2305 10.999 49.4707 11.1777 49.7461 11.3125C50.0273 11.4414 50.3525 11.5059 50.7217 11.5059C51.0381 11.5059 51.334 11.4473 51.6094 11.3301C51.8848 11.2129 52.1367 11.0576 52.3652 10.8643C52.5938 10.6709 52.7959 10.4453 52.9717 10.1875C53.1533 9.92969 53.3057 9.66016 53.4287 9.37891C53.5576 9.09766 53.6543 8.81348 53.7188 8.52637C53.7832 8.23926 53.8154 7.9668 53.8154 7.70898L55.6348 7.05859V14.2568L53.8154 14.9072V9.43164C53.7041 9.91211 53.5166 10.375 53.2529 10.8203C52.9951 11.2656 52.6904 11.6611 52.3389 12.0068C51.9873 12.3467 51.6035 12.6221 51.1875 12.833C50.7773 13.0381 50.3643 13.1406 49.9482 13.1406C49.3154 13.1406 48.7412 13.0117 48.2256 12.7539C47.71 12.4902 47.2705 12.1416 46.9072 11.708C46.5439 11.2744 46.2627 10.7764 46.0635 10.2139C45.8701 9.65137 45.7734 9.06836 45.7734 8.46484C45.7734 7.81445 45.8613 7.16113 46.0371 6.50488C46.2129 5.84277 46.4619 5.20996 46.7842 4.60645C47.1064 4.00293 47.4932 3.4375 47.9443 2.91016C48.3955 2.38281 48.8936 1.92578 49.4385 1.53906C49.9893 1.15234 50.5781 0.847656 51.2051 0.625C51.8379 0.402344 52.4941 0.291016 53.1738 0.291016C53.4258 0.291016 53.6953 0.320312 53.9824 0.378906C54.2754 0.431641 54.542 0.522461 54.7822 0.651367C55.0283 0.780273 55.2305 0.953125 55.3887 1.16992C55.5527 1.38086 55.6348 1.64746 55.6348 1.96973ZM59.2295 1.53027L58.7637 4.73828L57.9023 5.01074L57.375 2.16309L59.2295 1.53027ZM60.4424 11.9717C60.3076 12.2588 60.1494 12.4785 59.9678 12.6309C59.792 12.7832 59.6221 12.8945 59.458 12.9648C59.2646 13.0469 59.0684 13.0938 58.8691 13.1055C58.6113 13.1055 58.3975 13.0645 58.2275 12.9824C58.0576 12.9004 57.9229 12.792 57.8232 12.6572C57.7236 12.5225 57.6533 12.3701 57.6123 12.2002C57.5771 12.0303 57.5596 11.8574 57.5596 11.6816V6.75098L59.1768 6.19727V11.7256C59.1768 11.8662 59.209 11.9775 59.2734 12.0596C59.3379 12.1416 59.4199 12.1855 59.5195 12.1914C59.625 12.1914 59.7363 12.1533 59.8535 12.0771C59.9766 12.001 60.0938 11.8779 60.2051 11.708L60.4424 11.9717ZM66.9287 1.19629L65.8301 1.9082C65.7305 1.63867 65.5781 1.40723 65.373 1.21387C65.1738 1.02051 64.9189 0.923828 64.6084 0.923828C64.3564 0.923828 64.1543 0.982422 64.002 1.09961C63.8496 1.21094 63.7324 1.35742 63.6504 1.53906C63.5742 1.71484 63.5215 1.91113 63.4922 2.12793C63.4688 2.33887 63.457 2.54395 63.457 2.74316V6.19727H65.7598L65.3818 7.07617H63.457V14.7842L61.8311 15.4697V7.07617H60.9521L61.3301 6.19727H61.8311V4.3252C61.8311 3.84473 61.8838 3.36426 61.9893 2.88379C62.0947 2.39746 62.2705 1.96094 62.5166 1.57422C62.7627 1.1875 63.085 0.874023 63.4834 0.633789C63.8818 0.393555 64.3711 0.273438 64.9512 0.273438C65.127 0.273438 65.3057 0.293945 65.4873 0.334961C65.6748 0.375977 65.8564 0.4375 66.0322 0.519531C66.208 0.595703 66.3721 0.692383 66.5244 0.80957C66.6826 0.920898 66.8174 1.0498 66.9287 1.19629ZM69.7764 11.9717C69.6416 12.2588 69.4863 12.4785 69.3105 12.6309C69.1348 12.7832 68.9619 12.8945 68.792 12.9648C68.5986 13.0469 68.3994 13.0938 68.1943 13.1055C67.9307 13.1055 67.7139 13.0645 67.5439 12.9824C67.3799 12.9004 67.248 12.792 67.1484 12.6572C67.0547 12.5225 66.9873 12.3701 66.9463 12.2002C66.9111 12.0303 66.8936 11.8574 66.8936 11.6816V7.07617H65.9619L66.3398 6.19727H66.8936V3.08594L68.502 2.52344V6.19727H70.1719L69.8115 7.07617H68.502V11.7256C68.502 11.8662 68.5342 11.9775 68.5986 12.0596C68.6631 12.1416 68.7451 12.1855 68.8447 12.1914C68.9443 12.1914 69.0557 12.1533 69.1787 12.0771C69.3018 12.001 69.4219 11.8779 69.5391 11.708L69.7764 11.9717ZM84.832 3.87695C84.832 4.38086 84.7354 4.86426 84.542 5.32715C84.3545 5.79004 84.0967 6.22363 83.7686 6.62793C83.4463 7.03223 83.0713 7.39844 82.6436 7.72656C82.2158 8.05469 81.7617 8.33594 81.2812 8.57031C80.8008 8.80469 80.3115 8.98633 79.8135 9.11523C79.3154 9.24414 78.835 9.30859 78.3721 9.30859C78.3252 9.30859 78.2754 9.30859 78.2227 9.30859C78.1758 9.30859 78.1289 9.30273 78.082 9.29102L78.1787 8.80762C78.5596 8.74316 78.9434 8.64648 79.3301 8.51758C79.7227 8.38281 80.0977 8.21875 80.4551 8.02539C80.8125 7.82617 81.1465 7.59766 81.457 7.33984C81.7676 7.07617 82.0371 6.78613 82.2656 6.46973C82.4941 6.14746 82.6729 5.79883 82.8018 5.42383C82.9365 5.04297 83.0039 4.63574 83.0039 4.20215C83.0039 3.78613 82.9365 3.40234 82.8018 3.05078C82.667 2.69922 82.4766 2.39453 82.2305 2.13672C81.9902 1.87891 81.7002 1.67969 81.3604 1.53906C81.0205 1.39258 80.6426 1.31934 80.2266 1.31934C79.793 1.31934 79.3477 1.36914 78.8906 1.46875C78.4395 1.56836 77.9912 1.70898 77.5459 1.89062C77.1006 2.07227 76.6699 2.29492 76.2539 2.55859C75.8438 2.81641 75.4658 3.10352 75.1201 3.41992L74.8477 3.12109C75.2461 2.72266 75.7002 2.35059 76.21 2.00488C76.7256 1.65332 77.2646 1.34863 77.8271 1.09082C78.3896 0.827148 78.958 0.619141 79.5322 0.466797C80.1123 0.314453 80.6689 0.238281 81.2021 0.238281C81.7119 0.238281 82.1865 0.329102 82.626 0.510742C83.0713 0.686523 83.4551 0.935547 83.7773 1.25781C84.1055 1.58008 84.3633 1.96387 84.5508 2.40918C84.7383 2.85449 84.832 3.34375 84.832 3.87695ZM77.6865 12.6045L75.876 13.2725V3.41992L77.6865 2.77832V12.6045ZM89.0068 11.9717C88.9365 12.124 88.8457 12.2676 88.7344 12.4023C88.6289 12.5371 88.5088 12.6572 88.374 12.7627C88.2393 12.8682 88.0898 12.9502 87.9258 13.0088C87.7676 13.0732 87.6035 13.1055 87.4336 13.1055C86.9766 13.1055 86.6426 12.9795 86.4316 12.7275C86.2266 12.4697 86.124 12.1211 86.124 11.6816V0.958984L87.7412 0.396484V11.7256C87.7412 11.8428 87.7676 11.9512 87.8203 12.0508C87.873 12.1445 87.9668 12.1914 88.1016 12.1914C88.2363 12.1914 88.3623 12.1387 88.4795 12.0332C88.6025 11.9219 88.6992 11.8135 88.7695 11.708L89.0068 11.9717ZM96.9873 11.9541C96.917 12.1064 96.8291 12.25 96.7236 12.3848C96.6182 12.5195 96.4951 12.6396 96.3545 12.7451C96.2197 12.8506 96.0703 12.9355 95.9062 13C95.748 13.0586 95.5811 13.0879 95.4053 13.0879C94.9424 13.0879 94.6084 12.9619 94.4033 12.71C94.2041 12.4521 94.1045 12.1035 94.1045 11.6641V11.5059C93.999 11.7051 93.8789 11.9043 93.7441 12.1035C93.6152 12.3027 93.4658 12.4814 93.2959 12.6396C93.1318 12.7979 92.9473 12.9268 92.7422 13.0264C92.5371 13.126 92.3086 13.1758 92.0566 13.1758C91.6758 13.1758 91.3389 13.1025 91.0459 12.9561C90.7529 12.8096 90.5068 12.6133 90.3076 12.3672C90.1084 12.1152 89.959 11.8223 89.8594 11.4883C89.7598 11.1543 89.71 10.7998 89.71 10.4248C89.71 9.91504 89.7979 9.4082 89.9736 8.9043C90.1553 8.39453 90.4072 7.94043 90.7295 7.54199C91.0576 7.14355 91.4473 6.82129 91.8984 6.5752C92.3555 6.32324 92.8623 6.19727 93.4189 6.19727C93.6416 6.19727 93.8643 6.21777 94.0869 6.25879C94.3096 6.2998 94.5205 6.36719 94.7197 6.46094C94.9248 6.54883 95.1094 6.66602 95.2734 6.8125C95.4434 6.95898 95.5811 7.1377 95.6865 7.34863L94.377 7.90234C94.3066 7.79102 94.2246 7.68555 94.1309 7.58594C94.043 7.48047 93.9434 7.38965 93.832 7.31348C93.7266 7.2373 93.6123 7.17578 93.4893 7.12891C93.3662 7.08203 93.2373 7.05859 93.1025 7.05859C92.7979 7.05859 92.5254 7.15234 92.2852 7.33984C92.0508 7.52734 91.8486 7.75879 91.6787 8.03418C91.5146 8.30957 91.3887 8.60254 91.3008 8.91309C91.2129 9.22363 91.1689 9.50488 91.1689 9.75684C91.1689 9.97949 91.1895 10.2314 91.2305 10.5127C91.2773 10.7881 91.3564 11.0488 91.4678 11.2949C91.5791 11.541 91.7256 11.749 91.9072 11.9189C92.0889 12.0889 92.3174 12.1738 92.5928 12.1738C92.8096 12.1738 92.9971 12.127 93.1553 12.0332C93.3135 11.9336 93.4482 11.8076 93.5596 11.6553C93.6709 11.4971 93.7617 11.3184 93.832 11.1191C93.9082 10.9141 93.9639 10.7061 93.999 10.4951C94.04 10.2842 94.0664 10.0762 94.0781 9.87109C94.0957 9.66016 94.1045 9.47266 94.1045 9.30859V8.70215L95.7041 8.13965V11.708C95.7041 11.8252 95.7334 11.9336 95.792 12.0332C95.8506 12.127 95.9414 12.1738 96.0645 12.1738C96.2109 12.1738 96.3428 12.1211 96.46 12.0156C96.583 11.9043 96.6797 11.793 96.75 11.6816L96.9873 11.9541ZM105.24 11.9717C105.17 12.124 105.079 12.2676 104.968 12.4023C104.856 12.5371 104.73 12.6572 104.59 12.7627C104.455 12.8682 104.309 12.9502 104.15 13.0088C103.992 13.0732 103.828 13.1055 103.658 13.1055C103.195 13.1055 102.858 12.9795 102.647 12.7275C102.442 12.4697 102.34 12.1211 102.34 11.6816V8.10449C102.34 8.06348 102.337 8.0166 102.331 7.96387C102.331 7.90527 102.322 7.85254 102.305 7.80566C102.287 7.75293 102.264 7.70898 102.234 7.67383C102.205 7.63867 102.164 7.62109 102.111 7.62109C101.947 7.62109 101.78 7.7207 101.61 7.91992C101.446 8.11914 101.285 8.37695 101.127 8.69336C100.975 9.00977 100.831 9.36426 100.696 9.75684C100.567 10.1494 100.453 10.5391 100.354 10.9258C100.254 11.3066 100.175 11.6641 100.116 11.998C100.063 12.332 100.037 12.5986 100.037 12.7979L98.4375 13.3604V7.4541C98.4375 7.33691 98.4082 7.23145 98.3496 7.1377C98.291 7.03809 98.2002 6.98828 98.0771 6.98828C97.9307 6.98828 97.7959 7.04395 97.6729 7.15527C97.5557 7.26074 97.4619 7.36621 97.3916 7.47168L97.1543 7.20801C97.2246 7.06152 97.3125 6.9209 97.418 6.78613C97.5293 6.64551 97.6523 6.52246 97.7871 6.41699C97.9277 6.31152 98.0771 6.22949 98.2354 6.1709C98.3994 6.10645 98.5693 6.07422 98.7451 6.07422C99.2021 6.07422 99.5303 6.20312 99.7295 6.46094C99.9346 6.71289 100.037 7.05566 100.037 7.48926V10.3545C100.09 10.1143 100.16 9.8418 100.248 9.53711C100.342 9.22656 100.453 8.91309 100.582 8.59668C100.711 8.28027 100.854 7.97266 101.013 7.67383C101.177 7.36914 101.355 7.09961 101.549 6.86523C101.742 6.625 101.953 6.43457 102.182 6.29395C102.41 6.14746 102.656 6.07422 102.92 6.07422C103.195 6.07422 103.403 6.13574 103.544 6.25879C103.685 6.37598 103.784 6.52832 103.843 6.71582C103.907 6.89746 103.942 7.09961 103.948 7.32227C103.954 7.54492 103.957 7.75879 103.957 7.96387V11.7256C103.957 11.8428 103.986 11.9512 104.045 12.0508C104.104 12.1445 104.194 12.1914 104.317 12.1914C104.452 12.1914 104.578 12.1387 104.695 12.0332C104.818 11.9219 104.915 11.8135 104.985 11.708L105.24 11.9717ZM113.555 11.9717C113.484 12.124 113.394 12.2676 113.282 12.4023C113.171 12.5371 113.045 12.6572 112.904 12.7627C112.77 12.8682 112.623 12.9502 112.465 13.0088C112.307 13.0732 112.143 13.1055 111.973 13.1055C111.51 13.1055 111.173 12.9795 110.962 12.7275C110.757 12.4697 110.654 12.1211 110.654 11.6816V8.10449C110.654 8.06348 110.651 8.0166 110.646 7.96387C110.646 7.90527 110.637 7.85254 110.619 7.80566C110.602 7.75293 110.578 7.70898 110.549 7.67383C110.52 7.63867 110.479 7.62109 110.426 7.62109C110.262 7.62109 110.095 7.7207 109.925 7.91992C109.761 8.11914 109.6 8.37695 109.441 8.69336C109.289 9.00977 109.146 9.36426 109.011 9.75684C108.882 10.1494 108.768 10.5391 108.668 10.9258C108.568 11.3066 108.489 11.6641 108.431 11.998C108.378 12.332 108.352 12.5986 108.352 12.7979L106.752 13.3604V7.4541C106.752 7.33691 106.723 7.23145 106.664 7.1377C106.605 7.03809 106.515 6.98828 106.392 6.98828C106.245 6.98828 106.11 7.04395 105.987 7.15527C105.87 7.26074 105.776 7.36621 105.706 7.47168L105.469 7.20801C105.539 7.06152 105.627 6.9209 105.732 6.78613C105.844 6.64551 105.967 6.52246 106.102 6.41699C106.242 6.31152 106.392 6.22949 106.55 6.1709C106.714 6.10645 106.884 6.07422 107.06 6.07422C107.517 6.07422 107.845 6.20312 108.044 6.46094C108.249 6.71289 108.352 7.05566 108.352 7.48926V10.3545C108.404 10.1143 108.475 9.8418 108.562 9.53711C108.656 9.22656 108.768 8.91309 108.896 8.59668C109.025 8.28027 109.169 7.97266 109.327 7.67383C109.491 7.36914 109.67 7.09961 109.863 6.86523C110.057 6.625 110.268 6.43457 110.496 6.29395C110.725 6.14746 110.971 6.07422 111.234 6.07422C111.51 6.07422 111.718 6.13574 111.858 6.25879C111.999 6.37598 112.099 6.52832 112.157 6.71582C112.222 6.89746 112.257 7.09961 112.263 7.32227C112.269 7.54492 112.271 7.75879 112.271 7.96387V11.7256C112.271 11.8428 112.301 11.9512 112.359 12.0508C112.418 12.1445 112.509 12.1914 112.632 12.1914C112.767 12.1914 112.893 12.1387 113.01 12.0332C113.133 11.9219 113.229 11.8135 113.3 11.708L113.555 11.9717ZM120.498 11.2861C120.293 11.5498 120.067 11.7959 119.821 12.0244C119.581 12.2529 119.317 12.4521 119.03 12.6221C118.749 12.792 118.45 12.9268 118.134 13.0264C117.817 13.126 117.489 13.1758 117.149 13.1758C116.716 13.1758 116.317 13.0996 115.954 12.9473C115.591 12.7891 115.277 12.5752 115.014 12.3057C114.75 12.0303 114.545 11.708 114.398 11.3389C114.252 10.9639 114.179 10.5625 114.179 10.1348C114.179 9.7832 114.229 9.4375 114.328 9.09766C114.428 8.75781 114.568 8.43848 114.75 8.13965C114.932 7.84082 115.146 7.56543 115.392 7.31348C115.644 7.05566 115.919 6.83594 116.218 6.6543C116.517 6.47266 116.833 6.33203 117.167 6.23242C117.501 6.12695 117.844 6.07422 118.195 6.07422C118.441 6.07422 118.673 6.10352 118.89 6.16211C119.112 6.2207 119.309 6.31445 119.479 6.44336C119.648 6.56641 119.783 6.72754 119.883 6.92676C119.982 7.12012 120.032 7.35156 120.032 7.62109C120.032 7.84375 119.965 8.07812 119.83 8.32422C119.701 8.57031 119.528 8.81641 119.312 9.0625C119.101 9.30859 118.86 9.55176 118.591 9.79199C118.321 10.0264 118.046 10.2461 117.765 10.4512C117.489 10.6504 117.223 10.8262 116.965 10.9785C116.707 11.1309 116.481 11.248 116.288 11.3301C116.505 11.5996 116.757 11.8193 117.044 11.9893C117.331 12.1592 117.636 12.2441 117.958 12.2441C118.163 12.2441 118.371 12.2061 118.582 12.1299C118.793 12.0479 118.995 11.9453 119.188 11.8223C119.388 11.6992 119.575 11.5645 119.751 11.418C119.933 11.2715 120.094 11.1338 120.234 11.0049L120.498 11.2861ZM118.38 7.94629C118.38 7.81152 118.356 7.68262 118.31 7.55957C118.269 7.43652 118.207 7.33105 118.125 7.24316C118.043 7.14941 117.943 7.07617 117.826 7.02344C117.715 6.96484 117.586 6.93555 117.439 6.93555C117.176 6.93555 116.933 7.0293 116.71 7.2168C116.487 7.39844 116.294 7.62402 116.13 7.89355C115.972 8.16309 115.846 8.4502 115.752 8.75488C115.664 9.05371 115.62 9.31738 115.62 9.5459C115.62 9.76855 115.655 9.99707 115.726 10.2314C115.796 10.4658 115.893 10.6914 116.016 10.9082C116.25 10.7793 116.505 10.6006 116.78 10.3721C117.056 10.1436 117.311 9.89453 117.545 9.625C117.785 9.34961 117.984 9.06543 118.143 8.77246C118.301 8.47949 118.38 8.2041 118.38 7.94629ZM126.536 12.042C126.431 12.2061 126.302 12.3555 126.149 12.4902C125.997 12.6191 125.83 12.7305 125.648 12.8242C125.467 12.918 125.276 12.9912 125.077 13.0439C124.878 13.0967 124.682 13.123 124.488 13.123C124.23 13.123 124.008 13.0762 123.82 12.9824C123.639 12.8828 123.489 12.7539 123.372 12.5957C123.255 12.4375 123.167 12.2529 123.108 12.042C123.056 11.8311 123.029 11.6113 123.029 11.3828C123.029 11.084 123.073 10.7646 123.161 10.4248C123.255 10.0791 123.378 9.73926 123.53 9.40527C123.688 9.07129 123.867 8.76074 124.066 8.47363C124.266 8.18652 124.477 7.94922 124.699 7.76172C124.494 7.89648 124.269 8.00195 124.022 8.07812C123.782 8.1543 123.536 8.19238 123.284 8.19238C123.103 8.19238 122.944 8.17773 122.81 8.14844C122.675 8.11914 122.525 8.06348 122.361 7.98145L121.447 9.88867L121.069 9.73926L122.019 7.79688C121.919 7.72656 121.811 7.63867 121.693 7.5332C121.582 7.42188 121.5 7.31348 121.447 7.20801L122.669 5.83691C122.722 5.99512 122.795 6.15625 122.889 6.32031C122.982 6.47852 123.091 6.62207 123.214 6.75098C123.343 6.87402 123.483 6.97656 123.636 7.05859C123.794 7.14062 123.964 7.18164 124.146 7.18164C124.456 7.18164 124.758 7.12598 125.051 7.01465C125.344 6.89746 125.616 6.75684 125.868 6.59277L126.105 6.83008C125.883 7.03516 125.657 7.26367 125.429 7.51562C125.206 7.76172 125.004 8.02539 124.822 8.30664C124.641 8.58789 124.494 8.88379 124.383 9.19434C124.271 9.50488 124.216 9.81836 124.216 10.1348C124.216 10.3164 124.239 10.5215 124.286 10.75C124.339 10.9727 124.418 11.1865 124.523 11.3916C124.629 11.5908 124.761 11.7607 124.919 11.9014C125.077 12.0361 125.268 12.1035 125.49 12.1035C125.643 12.1035 125.789 12.0771 125.93 12.0244C126.076 11.9658 126.208 11.8955 126.325 11.8135L126.536 12.042Z" fill="black"/>
</svg>
