<?xml version="1.0" encoding="UTF-8" standalone="no"?>
<!-- Created with Inkscape (http://www.inkscape.org/) -->

<svg
   xmlns:osb="http://www.openswatchbook.org/uri/2009/osb"
   xmlns:dc="http://purl.org/dc/elements/1.1/"
   xmlns:cc="http://creativecommons.org/ns#"
   xmlns:rdf="http://www.w3.org/1999/02/22-rdf-syntax-ns#"
   xmlns:svg="http://www.w3.org/2000/svg"
   xmlns="http://www.w3.org/2000/svg"
   xmlns:xlink="http://www.w3.org/1999/xlink"
   xmlns:sodipodi="http://sodipodi.sourceforge.net/DTD/sodipodi-0.dtd"
   xmlns:inkscape="http://www.inkscape.org/namespaces/inkscape"
   width="18.774124mm"
   height="18.558651mm"
   viewBox="0 0 18.774124 18.558651"
   version="1.1"
   id="svg8"
   inkscape:version="0.92.3 (2405546, 2018-03-11)">
  <defs
     id="defs2">
    <linearGradient
       inkscape:collect="always"
       id="linearGradient4686">
      <stop
         style="stop-color:#1e1916;stop-opacity:1;"
         offset="0"
         id="stop4682" />
      <stop
         style="stop-color:#1e1916;stop-opacity:0;"
         offset="1"
         id="stop4684" />
    </linearGradient>
    <linearGradient
       inkscape:collect="always"
       id="linearGradient4676"
       osb:paint="gradient">
      <stop
         style="stop-color:#1e1916;stop-opacity:1;"
         offset="0"
         id="stop4672" />
      <stop
         style="stop-color:#1e1916;stop-opacity:0;"
         offset="1"
         id="stop4674" />
    </linearGradient>
    <linearGradient
       inkscape:collect="always"
       xlink:href="#linearGradient4686"
       id="linearGradient4688"
       x1="26.288909"
       y1="107.50584"
       x2="41.063033"
       y2="107.50584"
       gradientUnits="userSpaceOnUse" />
  </defs>
  <sodipodi:namedview
     id="base"
     pagecolor="#ffffff"
     bordercolor="#666666"
     borderopacity="1.0"
     inkscape:pageopacity="0.0"
     inkscape:pageshadow="2"
     inkscape:zoom="1.979899"
     inkscape:cx="36.321949"
     inkscape:cy="-117.57888"
     inkscape:document-units="mm"
     inkscape:current-layer="layer1"
     showgrid="false"
     fit-margin-top="2"
     fit-margin-left="2"
     fit-margin-right="2"
     fit-margin-bottom="2"
     inkscape:window-width="1920"
     inkscape:window-height="1001"
     inkscape:window-x="-9"
     inkscape:window-y="-9"
     inkscape:window-maximized="1" />
  <metadata
     id="metadata5">
    <rdf:RDF>
      <cc:Work
         rdf:about="">
        <dc:format>image/svg+xml</dc:format>
        <dc:type
           rdf:resource="http://purl.org/dc/dcmitype/StillImage" />
        <dc:title></dc:title>
      </cc:Work>
    </rdf:RDF>
  </metadata>
  <g
     inkscape:label="Layer 1"
     inkscape:groupmode="layer"
     id="layer1"
     transform="translate(-24.288909,-98.22652)">
    <path
       id="polyline18"
       style="font-style:normal;font-variant:normal;font-weight:normal;font-stretch:normal;letter-spacing:normal;word-spacing:normal;text-anchor:start;opacity:0.043;fill:#009eff;fill-opacity:1;stroke:url(#linearGradient4688);stroke-width:0;stroke-linecap:round;stroke-linejoin:round;stroke-miterlimit:10.43299961;stroke-dasharray:none;stroke-dashoffset:0;stroke-opacity:1"
       d="m 33.675967,100.22652 -1.769075,0.86195 v 0.79743 l 1.187904,0.0657 -0.05112,0.6868 -0.95651,0.0219 -0.710321,0.45286 0.710321,0.4644 0.878482,0.0115 v 0.35376 l -0.632292,0.0219 0.02556,0.60959 0.59328,0.0219 0.01345,0.41946 -1.317053,-0.53008 -0.129148,1.20536 -0.413008,-0.16594 0.270405,-0.4644 -0.581171,-0.30998 -0.361886,0.48629 -0.387447,-0.20973 0.426461,-0.65223 -0.03902,-0.78589 -0.877138,0.29845 -0.452021,0.67528 -0.749335,-0.29846 0.516596,-0.84122 -0.827361,-0.4206 -1.730061,0.85159 -0.02555,1.73773 0.813908,0.38719 0.632293,-0.80779 0.723774,0.34225 -0.504489,0.72021 0.09013,0.74096 0.878483,-0.28808 0.439915,-0.70755 0.438568,0.1982 -0.348433,0.50935 0.645746,0.32034 0.309419,-0.50818 0.465475,0.23162 -1.24037,0.77438 1.24037,0.77438 -0.465475,0.23277 -0.309419,-0.50934 -0.645746,0.3215 0.348433,0.51972 -0.438568,0.18782 -0.439915,-0.70754 -0.878483,-0.28808 -0.09013,0.74096 0.504489,0.71907 -0.723774,0.34339 -0.632293,-0.8078 -0.813908,0.39871 0.02555,1.72507 1.730061,0.85274 0.827361,-0.41024 -0.516596,-0.85158 0.749335,-0.29846 0.452021,0.67527 0.877138,0.29846 0.03902,-0.78475 -0.426461,-0.65338 0.387447,-0.21088 0.361886,0.48745 0.581171,-0.30998 -0.270405,-0.4644 0.413008,-0.16594 0.129148,1.20536 1.317053,-0.53124 -0.01345,0.43213 -0.59328,0.0115 -0.02556,0.61881 0.632292,0.0115 v 0.35376 l -0.878482,0.0104 -0.710321,0.46554 0.710321,0.45287 0.95651,0.023 0.05112,0.68565 -1.187904,0.0772 v 0.78475 l 1.769075,0.86426 1.769073,-0.86426 v -0.78475 l -1.187903,-0.0772 0.05112,-0.68565 0.956511,-0.023 0.710321,-0.45287 -0.710321,-0.46554 -0.891937,-0.0104 v -0.35376 l 0.633638,-0.0115 -0.01345,-0.61881 -0.593279,-0.0115 -0.0269,-0.43213 1.318397,0.53124 0.141258,-1.20536 0.413008,0.16594 -0.270406,0.4644 0.581171,0.30998 0.348433,-0.48745 0.400901,0.21088 -0.426461,0.65338 0.02556,0.78475 0.89059,-0.29846 0.452022,-0.67527 0.749334,0.29846 -0.516596,0.85158 0.827362,0.41024 1.73006,-0.85274 0.02556,-1.72507 -0.813908,-0.39871 -0.632294,0.8078 -0.723773,-0.34339 0.491035,-0.71907 -0.07668,-0.74096 -0.878483,0.28808 -0.439914,0.70754 -0.452022,-0.18782 0.361886,-0.51972 -0.645745,-0.3215 -0.30942,0.50934 -0.465474,-0.23277 1.240369,-0.77438 -1.240369,-0.77438 0.465474,-0.23162 0.30942,0.50818 0.645745,-0.32034 -0.361886,-0.50935 0.452022,-0.1982 0.439914,0.70755 0.878483,0.28808 0.07668,-0.74096 -0.491035,-0.72021 0.723773,-0.34225 0.632294,0.80779 0.813908,-0.38719 -0.02556,-1.73773 -1.73006,-0.85159 -0.827362,0.4206 0.516596,0.84122 -0.749334,0.29846 -0.452022,-0.67528 -0.89059,-0.29845 -0.02556,0.78589 0.426461,0.65223 -0.400901,0.20973 -0.348433,-0.48629 -0.581171,0.30998 0.270406,0.4644 -0.413008,0.16594 -0.141258,-1.20536 -1.318397,0.53008 0.0269,-0.41946 0.593279,-0.0219 0.01345,-0.60959 -0.633638,-0.0219 v -0.35376 l 0.891937,-0.0115 0.710321,-0.4644 -0.710321,-0.45286 -0.956511,-0.0219 -0.05112,-0.6868 1.187903,-0.0657 v -0.79743 z"
       inkscape:connector-curvature="0" />
  </g>
</svg>
